<svg xmlns="http://www.w3.org/2000/svg" version="1.1" xmlns:xlink="http://www.w3.org/1999/xlink" xmlns:svgjs="http://svgjs.dev/svgjs" width="1500" height="356" viewBox="0 0 1500 356"><g transform="matrix(1,0,0,1,-0.9090909090909918,0.19373960569981818)"><svg viewBox="0 0 396 94" data-background-color="#ffffff" preserveAspectRatio="xMidYMid meet" height="356" width="1500" xmlns="http://www.w3.org/2000/svg" xmlns:xlink="http://www.w3.org/1999/xlink"><g id="tight-bounds" transform="matrix(1,0,0,1,0.2400000000000091,-0.05115596330276162)"><svg viewBox="0 0 395.52 94.10231192660552" height="94.10231192660552" width="395.52"><g><svg viewBox="0 0 395.52 94.10231192660552" height="94.10231192660552" width="395.52"><g><svg viewBox="0 0 395.52 94.10231192660552" height="94.10231192660552" width="395.52"><g id="textblocktransform"><svg viewBox="0 0 395.52 94.10231192660552" height="94.10231192660552" width="395.52" id="textblock"><g><svg viewBox="0 0 395.52 94.10231192660552" height="94.10231192660552" width="395.52"><g transform="matrix(1,0,0,1,0,0)"><svg width="395.52" viewBox="2 -38.2 163.49 38.900000000000006" height="94.10231192660552" data-palette-color="#000000"><g class="wordmark-text-0" data-fill-palette-color="primary" id="text-0"><path d="M13.7 0.7Q7.25 0.7 4.63-5.15 2-11 2-19.55L2-19.55Q2-24.15 3.2-28.4 4.4-32.65 7.08-35.43 9.75-38.2 13.85-38.2L13.85-38.2Q17-38.2 19.38-36.25 21.75-34.3 23.03-31.18 24.3-28.05 24.3-24.65L24.3-24.65 17.2-24.3Q17.2-26.55 16.45-29.43 15.7-32.3 13.45-32.3L13.45-32.3Q11.1-32.3 10.2-28.55 9.3-24.8 9.3-19.55L9.3-19.55Q9.3-13.05 10.3-9.13 11.3-5.2 14.15-5.2L14.15-5.2Q16.15-5.2 17-7.58 17.85-9.95 18.1-13.35L18.1-13.35 24.35-12.75Q24.35-9.15 23.15-6.08 21.95-3 19.55-1.15 17.15 0.7 13.7 0.7L13.7 0.7ZM38.3 0.65Q33.25 0.65 30.52-3.35 27.8-7.35 27.8-14L27.8-14Q27.8-20.6 30.5-24.55 33.2-28.5 38.3-28.5L38.3-28.5Q43.35-28.5 46.12-24.55 48.9-20.6 48.9-14L48.9-14Q48.9-7.4 46.12-3.38 43.35 0.65 38.3 0.65L38.3 0.65ZM38.3-4.55Q40.55-4.55 41.2-7.3 41.85-10.05 41.85-14.05L41.85-14.05Q41.85-18.05 41.2-20.8 40.55-23.55 38.3-23.55L38.3-23.55Q36.05-23.55 35.45-20.95 34.85-18.35 34.85-14.6L34.85-14.6Q34.85-10 35.45-7.28 36.05-4.55 38.3-4.55L38.3-4.55ZM59.7 0.65Q56.95 0.65 55.2-1.28 53.45-3.2 53.45-6.45L53.45-6.45 53.45-27.55 60.45-28.15 60.45-9.3Q60.45-7.3 61.09-6.43 61.74-5.55 63.09-5.55L63.09-5.55Q64.14-5.55 65.34-6.08 66.55-6.6 67.5-7.75L67.5-7.75 67.5-27.55 74.55-28.15 74.55-0.3 67.5 0.3 67.5-3.3Q65.75-1.3 63.67-0.33 61.59 0.65 59.7 0.65L59.7 0.65ZM80.59 0.3L80.59-27.55 87.59-28.15 87.59-24.55Q89.74-26.45 91.82-27.48 93.89-28.5 95.64-28.5L95.64-28.5Q98.29-28.5 99.97-26.58 101.64-24.65 101.64-21.4L101.64-21.4 101.64-0.3 94.64 0.3 94.64-18.75Q94.64-22.5 92.09-22.5L92.09-22.5Q91.24-22.5 90.22-22 89.19-21.5 87.59-20.55L87.59-20.55 87.59-0.3 80.59 0.3ZM117.14 0.55Q113.74 0.55 111.39-1.18 109.04-2.9 109.04-7.3L109.04-7.3 109.04-22.85 105.14-22.85 105.44-28.15 109.24-28.15 109.94-34.25 116.04-35.1 116.04-28.15 121.84-28.15 121.54-22.85 116.09-22.85 116.09-7.35Q116.09-5.85 116.84-5.2 117.59-4.55 119.04-4.55L119.04-4.55Q119.84-4.55 121.74-4.85L121.74-4.85 121.74 0Q121.54 0.05 120.17 0.3 118.79 0.55 117.14 0.55L117.14 0.55ZM134.49 0.65Q129.49 0.65 126.84-3.33 124.19-7.3 124.19-13.9L124.19-13.9Q124.19-20.6 126.89-24.55 129.59-28.5 134.74-28.5L134.74-28.5Q139.64-28.5 142.24-24.55 144.84-20.6 144.84-13.9L144.84-13.9Q144.84-13.5 144.69-13.33 144.54-13.15 144.54-13.1L144.54-13.1 131.19-13.1Q131.19-9.85 132.04-7.18 132.89-4.5 134.64-4.5L134.64-4.5Q136.59-4.5 137.54-6.75 138.49-9 138.54-9.1L138.54-9.1 143.84-7.1Q142.79-3.5 140.49-1.43 138.19 0.65 134.49 0.65L134.49 0.65ZM131.19-17.15L137.94-17.15Q137.94-20.15 137.14-21.9 136.34-23.65 134.64-23.65L134.64-23.65Q133.79-23.65 132.99-22.8 132.19-21.95 131.69-20.45 131.19-18.95 131.19-17.15L131.19-17.15ZM149.09 0.3L149.09-27.55 156.09-28.15 156.09-23.6Q157.59-25.75 159.81-27.08 162.04-28.4 165.49-28.4L165.49-28.4 165.49-21.55Q163.69-21.55 160.76-20.93 157.84-20.3 156.09-18.75L156.09-18.75 156.09-0.3 149.09 0.3Z" fill="#000000" data-fill-palette-color="primary"></path></g></svg></g></svg></g></svg></g></svg></g><g></g></svg></g><defs></defs></svg><rect width="395.52" height="94.10231192660552" fill="none" stroke="none" visibility="hidden"></rect></g></svg></g></svg>